<svg width="200" height="200" viewBox="0 0 200 200" fill="none" xmlns="http://www.w3.org/2000/svg">
<circle cx="100" cy="100" r="100" fill="#393939"/>
<path d="M149.7 68.6667H131.25V56.3333C131.25 49.5315 125.733 44 118.95 44H82.05C75.2666 44 69.75 49.5315 69.75 56.3333V68.6667H51.3C44.5104 68.6667 39 74.192 39 81V142.667C39 149.475 44.5104 155 51.3 155H149.7C156.49 155 162 149.475 162 142.667V81C162 74.192 156.49 68.6667 149.7 68.6667ZM82.05 56.3333H118.95V68.6667H82.05V56.3333ZM125.1 118H106.65V136.5H94.35V118H75.9V105.667H94.35V87.1667H106.65V105.667H125.1V118Z" fill="white"/>
</svg>
