<svg width="200" height="200" viewBox="0 0 200 200" fill="none" xmlns="http://www.w3.org/2000/svg">
<circle cx="100" cy="100" r="100" fill="#393939"/>
<path d="M58.7416 98.8987C76.7368 116.932 94.6869 134.963 112.592 152.993C107.667 157.928 102.318 160.821 96.5435 161.672C90.7693 162.524 85.1975 161.716 79.8283 159.248C74.459 156.781 69.1765 152.946 63.9807 147.743C58.785 142.539 54.9578 137.246 52.4991 131.862C50.0405 126.477 49.2342 120.87 50.0803 115.04C50.9263 109.211 53.8134 103.828 58.7416 98.8932V98.8987ZM93.6528 57.8593L67.1969 64.3161L47.862 83.4253L41.9558 99.0345L39 96.2084L42.3572 78.5828L64.1109 56.6473L88.4137 45.4785L88.2781 45.2068L96.0663 37.4022L119.968 37L132.322 49.3808L129.773 52.0711L119.431 62.4301L108.551 51.5276H104.256L97.9428 57.8539H93.6474L93.6528 57.8593ZM147.639 94.5942L143.744 98.4965C147.953 109.801 145.581 119.939 136.629 128.91C123.468 115.812 105.474 97.8243 82.6485 74.9468C91.6009 66.0661 101.761 63.6892 113.129 67.8162L117.023 63.9139L147.639 94.5942ZM57.7979 92.1702L75.9287 74.0011L137.567 135.769L119.436 153.938L57.7979 92.1702ZM161.734 69.164L162 76.9686L147.899 91.2354L143.869 87.0613L124.399 67.6857L120.369 63.6476L134.606 49.3808L142.394 49.6526L161.734 69.164Z" fill="white"/>
</svg>
