<svg width="200" height="200" viewBox="0 0 200 200" fill="none" xmlns="http://www.w3.org/2000/svg">
<circle cx="100" cy="100" r="100" fill="#393939"/>
<path d="M46.72 138.219C46.426 137.817 46.2153 137.359 46.1005 136.873C45.9857 136.387 45.9691 135.883 46.0516 135.39C46.1342 134.898 46.3142 134.427 46.581 134.006C46.8479 133.585 47.1961 133.222 47.6049 132.94L70.9298 114.655C69.0012 111.844 71.2702 110.884 71.2702 110.884L69.3869 105.856C67.7079 102.359 70.9752 98.9995 70.9752 98.9995L91.0102 84.1208C91.6728 83.6502 92.4227 83.319 93.2152 83.1468C94.0077 82.9747 94.8265 82.9651 95.6227 83.1187C96.419 83.2723 97.1763 83.5859 97.8496 84.0408C98.5229 84.4957 99.0983 85.0825 99.5415 85.7663L103.58 83.4808C103.356 83.1035 103.209 82.6852 103.147 82.2501C103.085 81.815 103.11 81.3718 103.22 80.9464C103.33 80.521 103.522 80.1219 103.787 79.7722C104.051 79.4226 104.382 79.1294 104.76 78.9098L126.179 61.8141V53.9519C126.429 49.6551 128.675 51.4378 128.675 51.4378L135.822 58.5229C135.822 58.5229 151.319 45.2897 152.408 44.307C153.497 43.3242 154.473 45.0155 154.473 45.0155C154.473 45.0155 155.381 46.0897 154.813 46.7296C154.246 47.3696 139.929 60.4428 139.929 60.4428L140.337 63.9396L139.044 65.3795L136.775 63.094L132.895 66.8194C133.142 67.7698 133.145 68.768 132.903 69.7197C132.661 70.6715 132.182 71.5453 131.511 72.2589L114.721 90.0174C111.658 92.6 110.183 90.7259 110.183 90.7259L106.779 94.4056C105.35 96.554 111.658 101.971 111.658 101.971L111.091 103.525C116.044 108.587 121.814 112.768 128.153 115.89L120.62 127.477C114.729 124.982 109.414 121.286 105.01 116.621L98.5885 120.232C92.8707 124.506 93.9144 127.294 93.9144 127.294L94.9809 135.088C98.8381 136.893 95.6842 138.585 95.6842 138.585L89.7169 141.327C85.7689 143.841 85.8596 140.665 85.8596 140.665L85.3604 125.352C82.9553 119.843 79.3704 122.563 79.3704 122.563C75.0905 126.362 71.2814 130.667 68.0255 135.385L66.823 148.801C64.554 155.36 60.606 152.275 60.606 152.275L50.8041 142.356L46.72 138.219Z" fill="white"/>
</svg>
